<?xml version="1.0" standalone="no"?><svg xmlns="http://www.w3.org/2000/svg" viewBox="0 0 1440 320"><path fill="#b8cfce" fill-opacity="0.9" d="M0,192L21.8,170.7C43.6,149,87,107,131,128C174.5,149,218,235,262,256C305.5,277,349,235,393,197.3C436.4,160,480,128,524,101.3C567.3,75,611,53,655,74.7C698.2,96,742,160,785,202.7C829.1,245,873,267,916,272C960,277,1004,267,1047,250.7C1090.9,235,1135,213,1178,224C1221.8,235,1265,277,1309,266.7C1352.7,256,1396,192,1418,160L1440,128L1440,0L1418.2,0C1396.4,0,1353,0,1309,0C1265.5,0,1222,0,1178,0C1134.5,0,1091,0,1047,0C1003.6,0,960,0,916,0C872.7,0,829,0,785,0C741.8,0,698,0,655,0C610.9,0,567,0,524,0C480,0,436,0,393,0C349.1,0,305,0,262,0C218.2,0,175,0,131,0C87.3,0,44,0,22,0L0,0Z"></path></svg>