<svg id="visual" viewBox="0 0 900 600" width="900" height="600" xmlns="http://www.w3.org/2000/svg" xmlns:xlink="http://www.w3.org/1999/xlink" version="1.1"><g transform="translate(1.626981519971423 6.0724399378688645)"><path d="M302.9 -479.9C393 -413.5 466.7 -330.1 520.8 -231.9C575 -133.6 609.7 -20.5 596.7 87.4C583.8 195.4 523.1 298.1 444.5 380.5C365.8 462.9 269.1 525.1 161.8 561.3C54.5 597.4 -63.5 607.7 -177.2 583.5C-291 559.3 -400.6 500.7 -475.1 412.7C-549.6 324.8 -589.1 207.6 -599.7 90.2C-610.4 -27.1 -592.2 -144.6 -547.6 -253.3C-503 -362.1 -432.1 -462 -336.4 -525.8C-240.8 -589.6 -120.4 -617.3 -7 -606.5C106.4 -595.6 212.9 -546.2 302.9 -479.9" fill="#333446"></path></g></svg>